<svg width="11" height="11" viewBox="0 0 11 11" fill="none" xmlns="http://www.w3.org/2000/svg">
<path d="M0 9.13802C0 9.65991 0.446686 10.0833 0.997253 10.0833H8.31044C8.86101 10.0833 9.30769 9.65991 9.30769 9.13802V3.78125H0V9.13802ZM6.64835 5.27799C6.64835 5.14801 6.76054 5.04167 6.89767 5.04167H7.72871C7.86583 5.04167 7.97802 5.14801 7.97802 5.27799V6.06575C7.97802 6.19574 7.86583 6.30208 7.72871 6.30208H6.89767C6.76054 6.30208 6.64835 6.19574 6.64835 6.06575V5.27799ZM6.64835 7.79883C6.64835 7.66885 6.76054 7.5625 6.89767 7.5625H7.72871C7.86583 7.5625 7.97802 7.66885 7.97802 7.79883V8.58659C7.97802 8.71657 7.86583 8.82292 7.72871 8.82292H6.89767C6.76054 8.82292 6.64835 8.71657 6.64835 8.58659V7.79883ZM3.98901 5.27799C3.98901 5.14801 4.1012 5.04167 4.23832 5.04167H5.06937C5.20649 5.04167 5.31868 5.14801 5.31868 5.27799V6.06575C5.31868 6.19574 5.20649 6.30208 5.06937 6.30208H4.23832C4.1012 6.30208 3.98901 6.19574 3.98901 6.06575V5.27799ZM3.98901 7.79883C3.98901 7.66885 4.1012 7.5625 4.23832 7.5625H5.06937C5.20649 7.5625 5.31868 7.66885 5.31868 7.79883V8.58659C5.31868 8.71657 5.20649 8.82292 5.06937 8.82292H4.23832C4.1012 8.82292 3.98901 8.71657 3.98901 8.58659V7.79883ZM1.32967 5.27799C1.32967 5.14801 1.44186 5.04167 1.57898 5.04167H2.41003C2.54715 5.04167 2.65934 5.14801 2.65934 5.27799V6.06575C2.65934 6.19574 2.54715 6.30208 2.41003 6.30208H1.57898C1.44186 6.30208 1.32967 6.19574 1.32967 6.06575V5.27799ZM1.32967 7.79883C1.32967 7.66885 1.44186 7.5625 1.57898 7.5625H2.41003C2.54715 7.5625 2.65934 7.66885 2.65934 7.79883V8.58659C2.65934 8.71657 2.54715 8.82292 2.41003 8.82292H1.57898C1.44186 8.82292 1.32967 8.71657 1.32967 8.58659V7.79883ZM8.31044 1.26042H7.31319V0.315104C7.31319 0.141797 7.1636 0 6.98077 0H6.31594C6.13311 0 5.98352 0.141797 5.98352 0.315104V1.26042H3.32418V0.315104C3.32418 0.141797 3.17459 0 2.99176 0H2.32692C2.14409 0 1.99451 0.141797 1.99451 0.315104V1.26042H0.997253C0.446686 1.26042 0 1.68384 0 2.20573V3.15104H9.30769V2.20573C9.30769 1.68384 8.86101 1.26042 8.31044 1.26042Z" fill="#969696"/>
</svg>
