<svg width="8" height="8" viewBox="0 0 8 8" fill="none" xmlns="http://www.w3.org/2000/svg">
<path d="M3.75 0C5.82129 0 7.5 1.67871 7.5 3.75C7.5 5.82129 5.82129 7.5 3.75 7.5C1.67871 7.5 0 5.82129 0 3.75C0 1.67871 1.67871 0 3.75 0ZM3.39844 1.75781V3.75C3.39844 3.86719 3.45703 3.97705 3.55518 4.04297L4.96143 4.98047C5.12256 5.08887 5.34082 5.04492 5.44922 4.88232C5.55762 4.71973 5.51367 4.50293 5.35107 4.39453L4.10156 3.5625V1.75781C4.10156 1.56299 3.94482 1.40625 3.75 1.40625C3.55518 1.40625 3.39844 1.56299 3.39844 1.75781Z" fill="#969696"/>
</svg>
