<svg width="15" height="13" viewBox="0 0 15 13" fill="none" xmlns="http://www.w3.org/2000/svg">
<path d="M13.3018 0.937657C11.6246 -0.472227 9.03326 -0.260454 7.42858 1.37281C5.82389 -0.260454 3.23259 -0.475128 1.55536 0.937657C-0.626782 2.77399 -0.307586 5.76782 1.24777 7.35466L6.3375 12.5387C6.62768 12.8346 7.01652 13 7.42858 13C7.84353 13 8.22947 12.8375 8.51965 12.5416L13.6094 7.35756C15.1618 5.77072 15.4868 2.77689 13.3018 0.937657ZM12.617 6.37703L7.52724 11.5611C7.45759 11.6307 7.39956 11.6307 7.32991 11.5611L2.24018 6.37703C1.18103 5.29786 0.966298 3.25555 2.45201 2.00522C3.58081 1.0566 5.32188 1.19875 6.41295 2.30983L7.42858 3.34548L8.4442 2.30983C9.54108 1.19295 11.2821 1.0566 12.4051 2.00232C13.888 3.25265 13.6674 5.30656 12.617 6.37703Z" fill="#934F10"/>
</svg>
