<svg width="10" height="11" viewBox="0 0 10 11" fill="none" xmlns="http://www.w3.org/2000/svg">
<path d="M9.02623 8.83422C8.87497 9.46937 8.38336 9.82635 7.72394 9.94689C7.14488 10.0512 6.66272 10.0767 6.19947 9.71045C5.63459 9.24452 5.6275 8.4726 6.13565 7.98581C6.53745 7.61028 7.10233 7.53379 7.95083 7.38775C8.09264 7.36225 8.21555 7.3298 8.31954 7.21621C8.47081 7.04931 8.42354 7.12117 8.42354 3.43313C8.42354 3.17351 8.29354 3.10165 8.02174 3.14801C7.82793 3.18047 3.63269 3.95006 3.63269 3.95006C3.39161 4.00106 3.31598 4.0706 3.31598 4.33718C3.31598 9.77767 3.34198 9.52732 3.25689 9.88894C3.15762 10.3108 2.89291 10.6284 2.54311 10.8046C2.14604 11.0202 1.42753 11.1152 1.04464 11.0457C0.023602 10.8579 -0.335652 9.70118 0.356858 9.03821C0.758655 8.66268 1.32354 8.58619 2.17204 8.44015C2.31385 8.41465 2.43675 8.3822 2.54075 8.26861C2.77946 8.00204 2.58329 2.32046 2.66365 2.00521C2.68256 1.88467 2.73455 1.78267 2.83146 1.70618C2.93073 1.62504 3.11035 1.57868 3.14817 1.57868C7.96974 0.693184 8.55826 0.579599 8.64098 0.579599C8.91279 0.561054 9.06878 0.718682 9.06878 0.987578C9.0735 8.9733 9.09478 8.54446 9.02623 8.83422Z" fill="#969696"/>
</svg>
