<svg width="15" height="15" viewBox="0 0 15 15" fill="none" xmlns="http://www.w3.org/2000/svg">
<path d="M4.89525 4.89441L5.15909 4.85384L5.27218 4.61203L7.08591 0.73379C7.23117 0.423519 7.62704 0.420516 7.77479 0.734127C7.77485 0.734254 7.77491 0.734381 7.77497 0.734507L9.58836 4.61203L9.70145 4.85384L9.9653 4.89441L14.0235 5.51836L14.0238 5.51842C14.1705 5.54084 14.288 5.64621 14.3382 5.80944C14.3886 5.97329 14.355 6.14937 14.2329 6.27474L14.2328 6.27488L11.2968 9.29208L11.1211 9.4726L11.1616 9.72119L11.856 13.983C11.8875 14.1773 11.8082 14.3326 11.6915 14.4211C11.5755 14.509 11.4348 14.5259 11.3032 14.4529L11.3031 14.4528L7.67268 12.4404L7.43027 12.306L7.18786 12.4404L3.55745 14.4528L3.55585 14.4537C3.42489 14.5269 3.28514 14.5104 3.16945 14.4225C3.05256 14.3336 2.97305 14.1776 3.00454 13.9832C3.00455 13.9831 3.00456 13.9831 3.00457 13.983L3.69893 9.72119L3.73943 9.4726L3.56378 9.29208L0.62779 6.27488L0.627652 6.27474C0.50556 6.14937 0.471925 5.97329 0.522343 5.80944C0.572571 5.64621 0.69006 5.54084 0.836693 5.51842L0.837076 5.51836L4.89525 4.89441Z" stroke="#E77000" stroke-opacity=""/>
</svg>
