<svg width="23" height="20" viewBox="0 0 23 20" fill="none" xmlns="http://www.w3.org/2000/svg">
<path d="M8.07549 6.32534L7.81711 6.36219L1.98325 7.19422L1.9829 7.19427C1.33491 7.28621 1.10593 8.04631 1.55074 8.46999L1.55088 8.47013L5.77154 12.4936L5.96532 12.6783L5.91901 12.942L4.92081 18.6252C4.9208 18.6253 4.92079 18.6253 4.92078 18.6254C4.81736 19.2174 5.46689 19.7145 6.05086 19.4116L6.05241 19.4108L11.2713 16.7272L11.5 16.6097L11.7286 16.7272L16.9476 19.4108L16.9476 19.4109C17.535 19.713 18.182 19.2146 18.0792 18.6256L8.07549 6.32534ZM8.07549 6.32534L8.19298 6.09229L10.8003 0.920602C11.0841 0.358411 11.915 0.359775 12.1998 0.920967C12.1999 0.921092 12.1999 0.921217 12.2 0.921342L14.807 6.09229L14.9245 6.32534L15.1829 6.36219L21.0167 7.19422L21.0171 7.19427C21.6651 7.28621 21.894 8.04631 21.4492 8.46999L21.4491 8.47013L17.2284 12.4936L17.0346 12.6783L17.081 12.942L18.0792 18.6252L8.07549 6.32534Z" stroke="#E77000"/>
</svg>
