<svg width="23" height="25" viewBox="0 0 23 25" fill="none" xmlns="http://www.w3.org/2000/svg">
<path d="M22.3528 10.2866C20.2384 10.2914 18.172 9.63308 16.4517 8.40289V16.9902C16.4517 18.5808 15.9663 20.133 15.0581 21.44C14.1499 22.7471 12.8668 23.7467 11.3771 24.3041C9.88746 24.8615 8.26322 24.9528 6.72068 24.5588C5.17813 24.1647 3.79417 23.3142 2.74658 22.1176C1.699 20.9211 1.05026 19.4266 0.872461 17.8456C0.69466 16.2646 1.01182 14.6692 1.76627 13.2708C2.52073 11.8724 3.68845 10.7383 5.11086 10.0175C6.53327 9.2967 8.13348 9.03241 9.70966 9.24865V13.5687C8.98884 13.3429 8.21517 13.3477 7.49916 13.588C6.78315 13.8282 6.15844 14.2896 5.72115 14.8998C5.28385 15.5101 5.04839 16.2502 5.05319 17.0094C5.058 17.7687 5.30307 18.4991 5.74998 19.1094C6.19688 19.7197 6.8264 20.1714 7.54721 20.4021C8.26803 20.6327 9.0417 20.6327 9.75771 20.3973C10.4737 20.1618 11.1032 19.7053 11.5453 19.095C11.9874 18.4847 12.2277 17.7447 12.2277 16.9902V0.200012H16.4565C16.4517 0.555615 16.4853 0.916022 16.5478 1.26682C16.6968 2.05011 16.9995 2.79975 17.4464 3.4629C17.8933 4.12605 18.47 4.6931 19.1379 5.12558C20.0942 5.7551 21.2139 6.09148 22.3576 6.09148V10.2914L22.3528 10.2866Z" fill="#7C7C7C"/>
</svg>
